<svg width="67" height="68" viewBox="0 0 67 68" fill="none" xmlns="http://www.w3.org/2000/svg">
<path d="M11.2025 51.4189C18.8345 51.4189 23.2985 46.1629 23.2985 38.6029V4.61889C23.2985 2.89089 24.3065 1.45089 25.6745 0.730892V0.298889H16.3865V0.730892C17.8265 1.45089 18.8345 2.89089 18.8345 4.61889V41.1949C18.8345 48.1789 16.2425 50.5549 12.4265 50.5549C9.18647 50.5549 6.09047 47.7469 5.87447 44.6509H0.834473C1.69847 48.1789 5.65847 51.4189 11.2025 51.4189Z" fill="black"/>
<path d="M30.3132 67.5804H50.4732C60.1932 67.5804 66.5292 61.5324 66.5292 54.4764C66.5292 46.2684 60.5532 41.3724 53.5692 40.7244C59.3292 38.8524 63.0012 34.6044 63.0012 29.0604C63.0012 21.7884 56.8092 17.1804 48.5292 17.1804H30.3132V17.6124C31.7532 18.3324 32.7612 19.7724 32.7612 21.5004V63.2604C32.7612 64.9884 31.7532 66.4284 30.3132 67.1484V67.5804ZM37.2252 66.7164C37.2252 65.7804 37.2972 64.3404 37.2252 53.9004C37.3692 50.9484 38.6652 47.9964 41.0412 45.7644C43.2732 43.6044 46.0812 42.0924 49.9692 41.5164C57.3132 40.3644 61.7772 46.3404 61.7772 54.2604C61.7772 64.4124 54.9372 66.7164 48.3852 66.7164H37.2252ZM37.2252 50.0124V18.0444H47.0172C55.8012 18.0444 58.3932 22.4364 58.3932 29.3484C58.3932 32.9484 57.6012 39.5004 49.5372 40.7964C46.5852 41.3004 42.9852 42.6684 40.3932 45.1884C39.0252 46.4844 37.8732 48.0684 37.2252 50.0124Z" fill="black"/>
</svg>
