<svg width="320" height="29" viewBox="0 0 320 29" fill="none" xmlns="http://www.w3.org/2000/svg">
<path d="M5.81782 28.1761C9.84582 28.1761 12.2018 25.4021 12.2018 21.4121V3.47614C12.2018 2.56414 12.7338 1.80414 13.4558 1.42414V1.19614H8.55382V1.42414C9.31382 1.80414 9.84582 2.56414 9.84582 3.47614V22.7801C9.84582 26.4661 8.47782 27.7201 6.46382 27.7201C4.75382 27.7201 3.11982 26.2381 3.00582 24.6041H0.34582C0.80182 26.4661 2.89182 28.1761 5.81782 28.1761ZM16.1776 27.7961H34.2276L35.2156 22.9321H34.9876C34.9876 22.9321 34.1516 27.3401 29.3256 27.3401H19.8256V13.9261H27.2356C29.5156 13.9261 30.1616 15.7501 30.3136 17.3461H30.5416V10.0501H30.3136C30.1616 11.6841 29.5156 13.4701 27.2356 13.4701H19.8256V1.65214H28.2236C33.0116 1.65214 33.8476 6.06014 33.8476 6.06014H34.0756L33.1256 1.19614H16.1776V1.42414C16.9376 1.80414 17.4316 2.56414 17.4696 3.47614V25.5161C17.4316 26.4281 16.9376 27.1881 16.1776 27.5681V27.7961ZM45.8039 28.1761C50.8199 28.1381 54.2019 25.8201 54.2019 20.9941C54.2019 18.3341 52.9479 15.4081 47.4379 13.3181C43.5619 11.8361 39.1539 10.5441 39.1539 6.63014C39.1539 2.71614 42.6879 1.08214 46.6019 1.27214C51.5799 1.53814 52.8719 7.20014 52.8719 7.20014H53.0999L52.4539 2.29814C50.4399 1.57614 48.7299 0.816141 46.0319 0.816141C40.8639 0.816141 37.9379 3.74214 37.9379 7.42814C37.9379 11.6461 40.9779 13.6221 44.7019 15.1041C51.2759 17.7261 52.5299 19.8161 52.5299 22.0961C52.5299 26.2761 49.1859 27.7201 45.8039 27.7201C38.2039 27.7201 36.9499 21.7161 36.9499 21.7161H36.7219L37.3299 26.6181C40.9019 27.8341 42.4979 28.1761 45.8039 28.1761ZM64.8039 28.1761C69.8199 28.1381 73.2019 25.8201 73.2019 20.9941C73.2019 18.3341 71.9479 15.4081 66.4379 13.3181C62.5619 11.8361 58.1539 10.5441 58.1539 6.63014C58.1539 2.71614 61.6879 1.08214 65.6019 1.27214C70.5799 1.53814 71.8719 7.20014 71.8719 7.20014H72.0999L71.4539 2.29814C69.4399 1.57614 67.7299 0.816141 65.0319 0.816141C59.8639 0.816141 56.9379 3.74214 56.9379 7.42814C56.9379 11.6461 59.9779 13.6221 63.7019 15.1041C70.2759 17.7261 71.5299 19.8161 71.5299 22.0961C71.5299 26.2761 68.1859 27.7201 64.8039 27.7201C57.2039 27.7201 55.9499 21.7161 55.9499 21.7161H55.7219L56.3299 26.6181C59.9019 27.8341 61.4979 28.1761 64.8039 28.1761ZM75.7099 27.7961H80.6499V27.5681C79.8899 27.1881 79.3579 26.4281 79.3579 25.5161V3.43814C79.3579 2.56414 79.8899 1.76614 80.6499 1.38614V1.19614H75.7099V1.38614C76.4699 1.76614 77.0019 2.56414 77.0019 3.43814V25.5161C77.0019 26.4281 76.4699 27.1881 75.7099 27.5681V27.7961ZM96.8257 28.1761C101.614 28.1761 105.832 25.7061 108.264 21.9821H107.086C105.566 25.0601 102.678 27.1121 98.9157 27.1121C91.7337 27.1121 85.3877 19.9301 85.3877 12.2921C85.3877 6.47814 89.1877 1.84214 94.7737 1.84214C98.2317 1.84214 101.462 3.51414 103.894 6.13614H107.656C105.148 2.90614 101.196 0.816141 96.8257 0.816141C89.3017 0.816141 83.1457 6.97214 83.1457 14.4961C83.1457 22.0581 89.3017 28.1761 96.8257 28.1761ZM108.668 27.7961H111.746V27.5681C111.062 27.3401 110.53 26.7701 110.872 25.8201L113.266 19.1701H123.906L126.224 25.5921C126.642 26.7701 126.262 27.1881 125.502 27.5681V27.7961H130.404V27.5681C129.568 27.3781 129.074 26.6561 128.656 25.5541L119.688 0.816141H119.46L110.454 25.5541C110.074 26.6561 109.504 27.3781 108.668 27.5681V27.7961ZM113.418 18.7141L118.586 4.50214L123.754 18.7141H113.418ZM141.644 27.7961H152.284C157.414 27.7961 160.758 24.6041 160.758 20.8801C160.758 16.5481 157.604 13.9641 153.918 13.6221C156.958 12.6341 158.896 10.3921 158.896 7.46614C158.896 3.62814 155.628 1.19614 151.258 1.19614H141.644V1.42414C142.404 1.80414 142.936 2.56414 142.936 3.47614V25.5161C142.936 26.4281 142.404 27.1881 141.644 27.5681V27.7961ZM145.292 27.3401C145.292 26.8461 145.33 26.0861 145.292 20.5761C145.368 19.0181 146.052 17.4601 147.306 16.2821C148.484 15.1421 149.966 14.3441 152.018 14.0401C155.894 13.4321 158.25 16.5861 158.25 20.7661C158.25 26.1241 154.64 27.3401 151.182 27.3401H145.292ZM145.292 18.5241V1.65214H150.46C155.096 1.65214 156.464 3.97014 156.464 7.61814C156.464 9.51814 156.046 12.9761 151.79 13.6601C150.232 13.9261 148.332 14.6481 146.964 15.9781C146.242 16.6621 145.634 17.4981 145.292 18.5241ZM162.871 27.7961H180.921L181.909 22.9321H181.681C181.681 22.9321 180.845 27.3401 176.019 27.3401H166.519V13.9261H173.929C176.209 13.9261 176.855 15.7501 177.007 17.3461H177.235V10.0501H177.007C176.855 11.6841 176.209 13.4701 173.929 13.4701H166.519V1.65214H174.917C179.705 1.65214 180.541 6.06014 180.541 6.06014H180.769L179.819 1.19614H162.871V1.42414C163.631 1.80414 164.125 2.56414 164.163 3.47614V25.5161C164.125 26.4281 163.631 27.1881 162.871 27.5681V27.7961ZM184.061 27.7961H188.963V27.5681C188.241 27.1881 187.671 26.4281 187.671 25.5161V20.5761C187.747 18.9041 188.545 17.2701 189.989 16.0161C191.015 15.1421 192.573 14.2301 194.055 14.2681C197.019 14.3441 197.703 17.1561 198.691 20.4241C199.717 23.7301 200.477 27.6061 203.023 27.7961H205.417V27.5681C203.099 27.4161 202.377 23.9201 200.971 19.5501C199.831 16.0541 197.817 14.4201 195.081 13.9641C198.805 13.2041 201.275 10.7721 201.275 7.46614C201.275 3.62814 198.007 1.19614 193.637 1.19614H184.023V1.42414C184.783 1.80414 185.315 2.56414 185.315 3.43814V25.5161C185.315 26.4281 184.783 27.1881 184.061 27.5681V27.7961ZM187.671 18.5241V1.65214H192.839C197.475 1.65214 198.843 3.97014 198.843 7.61814C198.843 9.51814 198.425 12.9761 194.169 13.6601C192.725 13.9261 191.053 14.4961 189.685 15.6741C188.811 16.4341 188.089 17.3081 187.671 18.5241ZM218.359 28.1761C223.147 28.1761 227.327 25.7061 229.759 21.9821V16.8521C229.759 15.9781 230.291 15.1801 231.051 14.8001V14.5721H226.149V14.8001C226.871 15.1801 227.403 15.9781 227.403 16.8521V23.8821C225.769 25.8581 223.375 27.1121 220.449 27.1121C213.267 27.1121 206.921 19.9301 206.921 12.2921C206.921 6.47814 210.721 1.84214 216.307 1.84214C219.765 1.84214 222.995 3.51414 225.427 6.13614H229.189C226.681 2.90614 222.729 0.816141 218.359 0.816141C210.835 0.816141 204.679 7.01014 204.679 14.4961C204.679 22.0581 210.835 28.1761 218.359 28.1761ZM232.785 27.7961H249.885L250.873 22.9701H250.645C250.645 22.9701 249.809 27.3401 245.021 27.3401H236.433V3.47614C236.433 2.60214 236.965 1.80414 237.725 1.42414V1.19614H232.785V1.42414C233.545 1.80414 234.077 2.60214 234.077 3.47614V25.5541C234.077 26.4281 233.545 27.1881 232.785 27.5681V27.7961ZM263.127 28.1761C266.357 28.1761 269.473 26.3141 270.955 23.7301C272.209 21.6021 272.323 19.7401 272.323 17.6881V3.47614C272.323 2.56414 272.855 1.80414 273.615 1.42414V1.19614H270.575V1.42414C271.297 1.80414 271.867 2.56414 271.867 3.43814V18.3341C271.867 20.6901 271.335 22.0201 270.537 23.5021C269.207 25.8961 266.167 27.7201 263.165 27.7201C260.847 27.7201 258.909 26.1621 257.731 24.3001C256.819 22.7801 256.249 21.2601 256.249 19.5121V3.47614C256.249 2.56414 256.819 1.80414 257.541 1.42414V1.19614H252.639V1.42414C253.399 1.80414 253.931 2.56414 253.931 3.47614V18.9801C253.931 21.3361 254.805 23.5021 256.249 25.0981C257.959 26.9981 260.391 28.1761 263.127 28.1761ZM275.939 27.7961H278.979V27.5681C278.219 27.1501 277.649 26.4661 277.649 25.5161V3.24814L294.331 27.7961H294.787V3.47614C294.787 2.52614 295.319 1.80414 296.079 1.42414V1.19614H293.039V1.42414C293.761 1.80414 294.331 2.52614 294.331 3.47614V23.8821L278.979 1.19614H275.901V1.42414C276.395 1.57614 276.889 2.03214 277.193 2.52614V25.5161C277.193 26.4661 276.699 27.1501 275.939 27.5681V27.7961ZM298.58 27.7961H306.066C313.362 27.7961 319.29 21.8681 319.29 14.5341C319.29 7.16214 313.362 1.19614 306.066 1.19614H298.58V1.42414C299.378 1.80414 299.872 2.56414 299.872 3.47614V25.5161C299.872 26.4281 299.378 27.2261 298.58 27.6061V27.7961ZM302.266 27.3401V1.65214H306.066C311.31 1.65214 316.668 5.33814 316.668 14.5341C316.668 23.0461 311.31 27.3401 306.066 27.3401H302.266Z" fill="white"/>
</svg>
