<svg width="394" height="51" viewBox="0 0 394 51" fill="none" xmlns="http://www.w3.org/2000/svg">
<path d="M1.56801 21.9369H4.31901V21.8109C3.89901 21.6009 3.60501 21.1809 3.60501 20.6979V15.7209L5.49501 13.7259C7.32201 13.7679 8.18301 14.2929 9.08601 17.3169C9.84201 19.8159 10.199 21.7479 11.543 21.9369H12.929V21.8109C11.669 21.6849 11.165 19.5849 10.409 17.0439C9.63201 14.4609 7.63701 13.5579 5.70501 13.4949L10.766 8.16086C11.228 7.65686 11.753 7.42586 12.152 7.36286V7.23686H10.199V7.36286C10.472 7.40486 10.619 7.59386 10.619 7.80386C10.619 7.92986 10.577 8.03486 10.472 8.13986L3.60501 15.3009V8.49686C3.60501 7.99286 3.89901 7.57286 4.31901 7.36286V7.23686H1.56801V7.36286C2.00901 7.57286 2.30301 7.99286 2.30301 8.49686V20.6979C2.30301 21.1809 2.00901 21.6009 1.56801 21.8109V21.9369ZM13.9142 21.9369H16.6232V21.8109C16.2242 21.6009 15.9092 21.1809 15.9092 20.6769V17.9469C15.9512 17.0229 16.3922 16.1199 17.1902 15.4269C17.7572 14.9439 18.6182 14.4399 19.4372 14.4609C21.0752 14.5029 21.4532 16.0569 21.9992 17.8629C22.5662 19.6899 22.9862 21.8319 24.3932 21.9369H25.7162V21.8109C24.4352 21.7269 24.0362 19.7949 23.2592 17.3799C22.6292 15.4479 21.5162 14.5449 20.0042 14.2929C22.0622 13.8729 23.4272 12.5289 23.4272 10.7019C23.4272 8.58086 21.6212 7.23686 19.2062 7.23686H13.8932V7.36286C14.3132 7.57286 14.6072 7.99286 14.6072 8.47586V20.6769C14.6072 21.1809 14.3132 21.6009 13.9142 21.8109V21.9369ZM15.9092 16.8129V7.48886H18.7652C21.3272 7.48886 22.0832 8.76986 22.0832 10.7859C22.0832 11.8359 21.8522 13.7469 19.5002 14.1249C18.7022 14.2719 17.7782 14.5869 17.0222 15.2379C16.5392 15.6579 16.1402 16.1409 15.9092 16.8129ZM26.6901 21.9369H36.6651L37.2111 19.2489H37.0851C37.0851 19.2489 36.6231 21.6849 33.9561 21.6849H28.7061V14.2719H32.8011C34.0611 14.2719 34.4181 15.2799 34.5021 16.1619H34.6281V12.1299H34.5021C34.4181 13.0329 34.0611 14.0199 32.8011 14.0199H28.7061V7.48886H33.3471C35.9931 7.48886 36.4551 9.92486 36.4551 9.92486H36.5811L36.0561 7.23686H26.6901V7.36286C27.1101 7.57286 27.3831 7.99286 27.4041 8.49686V20.6769C27.3831 21.1809 27.1101 21.6009 26.6901 21.8109V21.9369ZM37.8335 21.9369H39.5345V21.8109C39.1565 21.6849 38.8625 21.3699 39.0515 20.8449L40.3745 17.1699H46.2545L47.5355 20.7189C47.7665 21.3699 47.5565 21.6009 47.1365 21.8109V21.9369H49.8455V21.8109C49.3835 21.7059 49.1105 21.3069 48.8795 20.6979L43.9235 7.02686H43.7975L38.8205 20.6979C38.6105 21.3069 38.2955 21.7059 37.8335 21.8109V21.9369ZM40.4585 16.9179L43.3145 9.06386L46.1705 16.9179H40.4585ZM53.2577 21.9369H55.9877V21.8109C55.5677 21.6009 55.2737 21.1809 55.2737 20.6769V7.48886H57.2057C59.8517 7.48886 60.3347 9.92486 60.3347 9.92486H60.4607L59.9147 7.23686H49.3307L48.7847 9.92486H48.9107C48.9107 9.92486 49.3727 7.48886 52.0397 7.48886H53.9717V20.6769C53.9717 21.1809 53.6777 21.6009 53.2577 21.8109V21.9369ZM68.2442 22.1469C72.4022 22.1469 75.8042 18.7659 75.8042 14.5869C75.8042 10.4289 72.4022 7.02686 68.2442 7.02686C64.0862 7.02686 60.6842 10.4289 60.6842 14.5869C60.6842 18.7659 64.0862 22.1469 68.2442 22.1469ZM69.3992 21.5589C65.4302 21.5589 61.9232 17.5899 61.9232 13.3689C61.9232 10.1559 64.0232 7.59386 67.1102 7.59386C71.0792 7.59386 74.5442 11.6259 74.5442 15.8679C74.5442 19.0389 72.4862 21.5589 69.3992 21.5589ZM76.9962 21.9369H79.7052V21.8109C79.3062 21.6009 78.9912 21.1809 78.9912 20.6769V17.9469C79.0332 17.0229 79.4742 16.1199 80.2722 15.4269C80.8392 14.9439 81.7002 14.4399 82.5192 14.4609C84.1572 14.5029 84.5352 16.0569 85.0812 17.8629C85.6482 19.6899 86.0682 21.8319 87.4752 21.9369H88.7982V21.8109C87.5172 21.7269 87.1182 19.7949 86.3412 17.3799C85.7112 15.4479 84.5982 14.5449 83.0862 14.2929C85.1442 13.8729 86.5092 12.5289 86.5092 10.7019C86.5092 8.58086 84.7032 7.23686 82.2882 7.23686H76.9752V7.36286C77.3952 7.57286 77.6892 7.99286 77.6892 8.47586V20.6769C77.6892 21.1809 77.3952 21.6009 76.9962 21.8109V21.9369ZM78.9912 16.8129V7.48886H81.8472C84.4092 7.48886 85.1652 8.76986 85.1652 10.7859C85.1652 11.8359 84.9342 13.7469 82.5822 14.1249C81.7842 14.2719 80.8602 14.5869 80.1042 15.2379C79.6212 15.6579 79.2222 16.1409 78.9912 16.8129ZM90.2761 23.6589C91.8091 23.2389 92.0401 21.9159 91.9981 21.1599C91.9561 20.5509 91.6201 20.0049 90.9271 20.0049C90.4231 20.0049 89.9821 20.4459 89.9821 20.9499C89.9821 21.4749 90.4231 21.9369 90.9271 21.9369C91.3261 21.9369 91.4731 21.7479 91.5151 21.7059C91.5151 22.2729 91.3261 23.0289 90.2761 23.4909V23.6589ZM98.9801 21.9369H101.71V21.8109C101.29 21.6009 100.996 21.1809 100.996 20.6769V14.5029H104.713C105.973 14.5029 106.33 15.4899 106.414 16.3929H106.54V12.3609H106.414C106.33 13.2639 105.973 14.2509 104.713 14.2509H100.996V7.48886H105.406C108.052 7.48886 108.514 9.92486 108.514 9.92486H108.64L108.115 7.23686H98.9801V7.36286C99.4001 7.57286 99.6941 7.99286 99.6941 8.49686V20.6769C99.6941 21.1809 99.4001 21.6009 98.9801 21.8109V21.9369ZM116.191 22.1469C120.349 22.1469 123.751 18.7659 123.751 14.5869C123.751 10.4289 120.349 7.02686 116.191 7.02686C112.033 7.02686 108.631 10.4289 108.631 14.5869C108.631 18.7659 112.033 22.1469 116.191 22.1469ZM117.346 21.5589C113.377 21.5589 109.87 17.5899 109.87 13.3689C109.87 10.1559 111.97 7.59386 115.057 7.59386C119.026 7.59386 122.491 11.6259 122.491 15.8679C122.491 19.0389 120.433 21.5589 117.346 21.5589ZM128.439 21.9369H131.169V21.8109C130.749 21.6009 130.455 21.1809 130.455 20.6769V7.48886H132.387C135.033 7.48886 135.516 9.92486 135.516 9.92486H135.642L135.096 7.23686H124.512L123.966 9.92486H124.092C124.092 9.92486 124.554 7.48886 127.221 7.48886H129.153V20.6769C129.153 21.1809 128.859 21.6009 128.439 21.8109V21.9369ZM143.426 22.1469C147.584 22.1469 150.986 18.7659 150.986 14.5869C150.986 10.4289 147.584 7.02686 143.426 7.02686C139.268 7.02686 135.866 10.4289 135.866 14.5869C135.866 18.7659 139.268 22.1469 143.426 22.1469ZM144.581 21.5589C140.612 21.5589 137.105 17.5899 137.105 13.3689C137.105 10.1559 139.205 7.59386 142.292 7.59386C146.261 7.59386 149.726 11.6259 149.726 15.8679C149.726 19.0389 147.668 21.5589 144.581 21.5589ZM159.791 22.1469C162.437 22.1469 164.747 20.7819 166.091 18.7239V15.8889C166.091 15.4059 166.385 14.9649 166.805 14.7549V14.6289H164.096V14.7549C164.495 14.9649 164.789 15.4059 164.789 15.8889V19.7739C163.886 20.8659 162.563 21.5589 160.946 21.5589C156.977 21.5589 153.47 17.5899 153.47 13.3689C153.47 10.1559 155.57 7.59386 158.657 7.59386C160.568 7.59386 162.353 8.51786 163.697 9.96686H165.776C164.39 8.18186 162.206 7.02686 159.791 7.02686C155.633 7.02686 152.231 10.4499 152.231 14.5869C152.231 18.7659 155.633 22.1469 159.791 22.1469ZM167.784 21.9369H170.493V21.8109C170.094 21.6009 169.779 21.1809 169.779 20.6769V17.9469C169.821 17.0229 170.262 16.1199 171.06 15.4269C171.627 14.9439 172.488 14.4399 173.307 14.4609C174.945 14.5029 175.323 16.0569 175.869 17.8629C176.436 19.6899 176.856 21.8319 178.263 21.9369H179.586V21.8109C178.305 21.7269 177.906 19.7949 177.129 17.3799C176.499 15.4479 175.386 14.5449 173.874 14.2929C175.932 13.8729 177.297 12.5289 177.297 10.7019C177.297 8.58086 175.491 7.23686 173.076 7.23686H167.763V7.36286C168.183 7.57286 168.477 7.99286 168.477 8.47586V20.6769C168.477 21.1809 168.183 21.6009 167.784 21.8109V21.9369ZM169.779 16.8129V7.48886H172.635C175.197 7.48886 175.953 8.76986 175.953 10.7859C175.953 11.8359 175.722 13.7469 173.37 14.1249C172.572 14.2719 171.648 14.5869 170.892 15.2379C170.409 15.6579 170.01 16.1409 169.779 16.8129ZM179.378 21.9369H181.079V21.8109C180.701 21.6849 180.407 21.3699 180.596 20.8449L181.919 17.1699H187.799L189.08 20.7189C189.311 21.3699 189.101 21.6009 188.681 21.8109V21.9369H191.39V21.8109C190.928 21.7059 190.655 21.3069 190.424 20.6979L185.468 7.02686H185.342L180.365 20.6979C180.155 21.3069 179.84 21.7059 179.378 21.8109V21.9369ZM182.003 16.9179L184.859 9.06386L187.715 16.9179H182.003ZM192.352 21.9369H195.082V21.8109C194.662 21.6009 194.368 21.1809 194.368 20.6769V14.5029H198.085C199.345 14.5029 199.702 15.4899 199.786 16.3929H199.912V12.3609H199.786C199.702 13.2639 199.345 14.2509 198.085 14.2509H194.368V7.48886H198.778C201.424 7.48886 201.886 9.92486 201.886 9.92486H202.012L201.487 7.23686H192.352V7.36286C192.772 7.57286 193.066 7.99286 193.066 8.49686V20.6769C193.066 21.1809 192.772 21.6009 192.352 21.8109V21.9369ZM214.441 22.1469C217.927 22.1469 220.888 19.6689 220.888 16.9599C220.888 15.2379 220.048 13.6209 218.704 12.7599C219.061 12.1299 219.439 11.6469 219.901 11.4369C220.468 11.1639 221.14 11.3739 221.707 11.9619L221.875 11.7729C220.825 10.6599 219.145 10.7019 218.011 11.7939C216.604 13.1589 215.47 17.0019 213.643 17.6319C212.761 17.9469 211.984 17.5059 211.585 16.9179L211.375 17.0439C211.69 17.5479 212.236 18.2199 213.685 18.2199C216.373 18.2199 217.423 15.0279 218.557 12.9909C219.901 13.8099 220.636 15.5739 220.636 16.9599C220.636 19.4379 217.864 21.8949 214.441 21.8949C212.341 21.8949 209.506 20.2149 209.506 16.6869C209.506 12.1299 213.076 11.6049 215.071 11.6049V11.3529C213.79 11.4789 212.467 11.0379 212.467 9.27386C212.467 7.95086 213.412 7.27886 214.441 7.27886C215.302 7.27886 216.562 7.67786 216.919 8.89586H217.171C216.793 7.53086 215.449 7.02686 214.441 7.02686C212.698 7.02686 211.459 8.16086 211.459 9.27386C211.459 10.2609 212.236 11.3739 213.475 11.4999C211.459 11.6049 207.889 13.3479 207.889 16.5609C207.889 19.7949 210.724 22.1469 214.441 22.1469ZM228.302 21.9369H234.182C237.017 21.9369 238.865 20.1729 238.865 18.1149C238.865 15.7209 237.122 14.2929 235.085 14.1039C236.765 13.5579 237.836 12.3189 237.836 10.7019C237.836 8.58086 236.03 7.23686 233.615 7.23686H228.302V7.36286C228.722 7.57286 229.016 7.99286 229.016 8.49686V20.6769C229.016 21.1809 228.722 21.6009 228.302 21.8109V21.9369ZM230.318 21.6849C230.318 21.4119 230.339 20.9919 230.318 17.9469C230.36 17.0859 230.738 16.2249 231.431 15.5739C232.082 14.9439 232.901 14.5029 234.035 14.3349C236.177 13.9989 237.479 15.7419 237.479 18.0519C237.479 21.0129 235.484 21.6849 233.573 21.6849H230.318ZM230.318 16.8129V7.48886H233.174C235.736 7.48886 236.492 8.76986 236.492 10.7859C236.492 11.8359 236.261 13.7469 233.909 14.1249C233.048 14.2719 231.998 14.6709 231.242 15.4059C230.843 15.7839 230.507 16.2459 230.318 16.8129ZM240.033 21.9369H249.483L250.029 19.2699H249.903C249.903 19.2699 249.441 21.6849 246.795 21.6849H242.049V8.49686C242.049 8.01386 242.343 7.57286 242.763 7.36286V7.23686H240.033V7.36286C240.453 7.57286 240.747 8.01386 240.747 8.49686V20.6979C240.747 21.1809 240.453 21.6009 240.033 21.8109V21.9369ZM257.818 22.1469C261.976 22.1469 265.378 18.7659 265.378 14.5869C265.378 10.4289 261.976 7.02686 257.818 7.02686C253.66 7.02686 250.258 10.4289 250.258 14.5869C250.258 18.7659 253.66 22.1469 257.818 22.1469ZM258.973 21.5589C255.004 21.5589 251.497 17.5899 251.497 13.3689C251.497 10.1559 253.597 7.59386 256.684 7.59386C260.653 7.59386 264.118 11.6259 264.118 15.8679C264.118 19.0389 262.06 21.5589 258.973 21.5589ZM266.444 21.9369H268.124V21.8109C267.704 21.6009 267.41 21.1809 267.41 20.6769V8.66486L273.101 21.9369H273.227L278.729 9.08486V20.6769C278.729 21.1809 278.435 21.6009 278.015 21.8109V21.9369H280.745V21.8109C280.325 21.6009 280.031 21.1809 280.031 20.6769V8.49686C280.031 7.99286 280.325 7.57286 280.745 7.36286V7.23686H279.233L273.71 20.1519L268.166 7.23686H266.423V7.36286C266.843 7.57286 267.158 7.95086 267.158 8.45486V20.6769C267.158 21.1809 266.864 21.6009 266.444 21.8109V21.9369ZM286.941 22.1469C289.713 22.1259 291.582 20.8449 291.582 18.1779C291.582 16.7079 290.889 15.0909 287.844 13.9359C285.702 13.1169 283.266 12.4029 283.266 10.2399C283.266 8.07686 285.219 7.17386 287.382 7.27886C290.133 7.42586 290.847 10.5549 290.847 10.5549H290.973L290.616 7.84586C289.503 7.44686 288.558 7.02686 287.067 7.02686C284.211 7.02686 282.594 8.64386 282.594 10.6809C282.594 13.0119 284.274 14.1039 286.332 14.9229C289.965 16.3719 290.658 17.5269 290.658 18.7869C290.658 21.0969 288.81 21.8949 286.941 21.8949C282.741 21.8949 282.048 18.5769 282.048 18.5769H281.922L282.258 21.2859C284.232 21.9579 285.114 22.1469 286.941 22.1469ZM296.685 21.9369H299.415V21.8109C298.995 21.6009 298.701 21.1809 298.701 20.6769V7.48886H300.633C303.279 7.48886 303.762 9.92486 303.762 9.92486H303.888L303.342 7.23686H292.758L292.212 9.92486H292.338C292.338 9.92486 292.8 7.48886 295.467 7.48886H297.399V20.6769C297.399 21.1809 297.105 21.6009 296.685 21.8109V21.9369ZM304.858 21.9369H314.833L315.379 19.2489H315.253C315.253 19.2489 314.791 21.6849 312.124 21.6849H306.874V14.2719H310.969C312.229 14.2719 312.586 15.2799 312.67 16.1619H312.796V12.1299H312.67C312.586 13.0329 312.229 14.0199 310.969 14.0199H306.874V7.48886H311.515C314.161 7.48886 314.623 9.92486 314.623 9.92486H314.749L314.224 7.23686H304.858V7.36286C305.278 7.57286 305.551 7.99286 305.572 8.49686V20.6769C305.551 21.1809 305.278 21.6009 304.858 21.8109V21.9369ZM316.569 21.9369H319.278V21.8109C318.879 21.6009 318.564 21.1809 318.564 20.6769V17.9469C318.606 17.0229 319.047 16.1199 319.845 15.4269C320.412 14.9439 321.273 14.4399 322.092 14.4609C323.73 14.5029 324.108 16.0569 324.654 17.8629C325.221 19.6899 325.641 21.8319 327.048 21.9369H328.371V21.8109C327.09 21.7269 326.691 19.7949 325.914 17.3799C325.284 15.4479 324.171 14.5449 322.659 14.2929C324.717 13.8729 326.082 12.5289 326.082 10.7019C326.082 8.58086 324.276 7.23686 321.861 7.23686H316.548V7.36286C316.968 7.57286 317.262 7.99286 317.262 8.47586V20.6769C317.262 21.1809 316.968 21.6009 316.569 21.8109V21.9369ZM318.564 16.8129V7.48886H321.42C323.982 7.48886 324.738 8.76986 324.738 10.7859C324.738 11.8359 324.507 13.7469 322.155 14.1249C321.357 14.2719 320.433 14.5869 319.677 15.2379C319.194 15.6579 318.795 16.1409 318.564 16.8129ZM329.344 21.9369H335.224C338.059 21.9369 339.907 20.1729 339.907 18.1149C339.907 15.7209 338.164 14.2929 336.127 14.1039C337.807 13.5579 338.878 12.3189 338.878 10.7019C338.878 8.58086 337.072 7.23686 334.657 7.23686H329.344V7.36286C329.764 7.57286 330.058 7.99286 330.058 8.49686V20.6769C330.058 21.1809 329.764 21.6009 329.344 21.8109V21.9369ZM331.36 21.6849C331.36 21.4119 331.381 20.9919 331.36 17.9469C331.402 17.0859 331.78 16.2249 332.473 15.5739C333.124 14.9439 333.943 14.5029 335.077 14.3349C337.219 13.9989 338.521 15.7419 338.521 18.0519C338.521 21.0129 336.526 21.6849 334.615 21.6849H331.36ZM331.36 16.8129V7.48886H334.216C336.778 7.48886 337.534 8.76986 337.534 10.7859C337.534 11.8359 337.303 13.7469 334.951 14.1249C334.09 14.2719 333.04 14.6709 332.284 15.4059C331.885 15.7839 331.549 16.2459 331.36 16.8129ZM348.504 22.1469C352.662 22.1469 356.064 18.7659 356.064 14.5869C356.064 10.4289 352.662 7.02686 348.504 7.02686C344.346 7.02686 340.944 10.4289 340.944 14.5869C340.944 18.7659 344.346 22.1469 348.504 22.1469ZM349.659 21.5589C345.69 21.5589 342.183 17.5899 342.183 13.3689C342.183 10.1559 344.283 7.59386 347.37 7.59386C351.339 7.59386 354.804 11.6259 354.804 15.8679C354.804 19.0389 352.746 21.5589 349.659 21.5589ZM357.13 21.9369H358.81V21.8109C358.39 21.5799 358.075 21.2019 358.075 20.6769V8.37086L367.294 21.9369H367.546V8.49686C367.546 7.97186 367.84 7.57286 368.26 7.36286V7.23686H366.58V7.36286C366.979 7.57286 367.294 7.97186 367.294 8.49686V19.7739L358.81 7.23686H357.109V7.36286C357.382 7.44686 357.655 7.69886 357.823 7.97186V20.6769C357.823 21.2019 357.55 21.5799 357.13 21.8109V21.9369ZM369.642 21.9369H373.779C377.811 21.9369 381.087 18.6609 381.087 14.6079C381.087 10.5339 377.811 7.23686 373.779 7.23686H369.642V7.36286C370.083 7.57286 370.356 7.99286 370.356 8.49686V20.6769C370.356 21.1809 370.083 21.6219 369.642 21.8319V21.9369ZM371.679 21.6849V7.48886H373.779C376.677 7.48886 379.638 9.52586 379.638 14.6079C379.638 19.3119 376.677 21.6849 373.779 21.6849H371.679ZM382.255 21.9369H392.23L392.776 19.2489H392.65C392.65 19.2489 392.188 21.6849 389.521 21.6849H384.271V14.2719H388.366C389.626 14.2719 389.983 15.2799 390.067 16.1619H390.193V12.1299H390.067C389.983 13.0329 389.626 14.0199 388.366 14.0199H384.271V7.48886H388.912C391.558 7.48886 392.02 9.92486 392.02 9.92486H392.146L391.621 7.23686H382.255V7.36286C382.675 7.57286 382.948 7.99286 382.969 8.49686V20.6769C382.948 21.1809 382.675 21.6009 382.255 21.8109V21.9369Z" fill="white"/>
</svg>
