<svg width="48" height="32" viewBox="0 0 48 32" fill="none" xmlns="http://www.w3.org/2000/svg">
<path d="M0.686424 0.847288L0.686424 5.65692L1.08999 5.65692C1.7626 4.91698 3.10781 4.39902 4.72208 4.39902L43.8006 4.39902C45.3477 4.39902 46.7601 4.91698 47.4327 5.65693L47.769 5.65693L47.769 0.84729L47.4327 0.84729C46.7601 1.58723 45.3477 2.10519 43.8007 2.10519L4.72208 2.10519C3.10781 2.10519 1.7626 1.58723 1.08999 0.847288L0.686424 0.847288Z" fill="white"/>
<path d="M0.686424 13.9169L0.686423 18.7265L1.08999 18.7265C1.7626 17.9866 3.10781 17.4686 4.72208 17.4686L43.8006 17.4686C45.3476 17.4686 46.7601 17.9866 47.4327 18.7265L47.769 18.7265L47.769 13.9169L47.4327 13.9169C46.7601 14.6568 45.3476 15.1748 43.8006 15.1748L4.72208 15.1748C3.10781 15.1748 1.7626 14.6568 1.08999 13.9169L0.686424 13.9169Z" fill="white"/>
<path d="M0.686423 26.9864L0.686423 31.7961L1.08999 31.7961C1.7626 31.0561 3.10781 30.5382 4.72208 30.5382L43.8006 30.5382C45.3476 30.5382 46.7601 31.0561 47.4327 31.7961L47.769 31.7961L47.769 26.9864L47.4327 26.9864C46.7601 27.7264 45.3476 28.2444 43.8006 28.2444L4.72208 28.2443C3.10781 28.2443 1.7626 27.7264 1.08999 26.9864L0.686423 26.9864Z" fill="white"/>
</svg>
